<svg width="358" height="40" viewBox="0 0 358 40" fill="none" xmlns="http://www.w3.org/2000/svg">
<path d="M3.89611 9.56253C3.89611 10.3958 4.37855 11.0098 4.99256 11.273L4.55398 11.887C2.93124 11.1853 1.57166 9.56253 1.57166 7.28193C1.57166 4.12417 4.24698 1.405 8.50117 1.405C12.2291 1.405 18.0183 4.51889 22.0532 4.51889C22.9742 4.51889 23.8952 4.08031 23.8952 3.11545C23.8952 1.58043 21.8778 1.36114 20.5182 1.1857V0.352409C24.6408 0.0454056 27.8424 2.28215 27.8424 5.48376C27.8424 8.64152 25.0794 10.352 21.8778 10.352C21.8778 10.352 21.8778 10.352 21.8339 10.352V15.6149L24.7724 18.5534L21.8339 21.4918V28.2021C23.9829 26.7548 25.5618 24.6057 26.439 22.4128H27.2723C27.2723 22.5444 27.2723 22.7198 27.2723 22.8514C27.2723 29.5178 21.6585 34.8684 14.5535 34.8684C7.40473 34.8684 0.519071 29.2985 0.519071 21.1848C0.519071 15.7903 4.37855 10.045 10.8695 8.94852L11.3081 9.60639C10.5186 10.0888 8.23803 11.7993 6.87844 14.7816L16.5271 10.659V23.9917L8.76432 27.2372C10.5186 28.9476 12.9308 30.0441 15.7377 30.0441C17.5797 30.0441 19.2025 29.6055 20.6059 28.9038V21.448L17.7551 18.5534L20.6059 15.6588V10.2643C16.4833 9.73796 8.85203 7.28193 6.79072 7.28193C5.29956 7.28193 3.89611 8.07137 3.89611 9.56253ZM6.26443 16.2728C5.95743 17.3253 5.782 18.5095 5.782 19.7814C5.782 22.1935 6.57143 24.518 7.97488 26.3162L10.8695 25.0882V14.343L6.26443 16.2728ZM38.0407 29.7809L39.4442 31.1844L40.8037 30.2634L41.5932 31.2282L36.1548 35.0439L31.6375 31.1844L29.9709 32.237L29.1815 31.2282L32.1638 29.3424V9.3871C32.1638 8.68538 32.1638 7.7205 30.0586 7.06264V6.44863L37.2074 1.405H38.0407V17.6762L43.4791 12.5449L48.128 16.4043L49.8823 15.0009L50.6279 15.9658L48.742 17.5008V30.0002C48.742 34.5176 47.2508 39.9559 39.6196 39.9559C39.1372 39.9559 38.6986 39.9121 38.26 39.8682V38.8156C41.5055 38.8156 43.0843 34.5614 43.0843 30.0002V18.8604L40.4529 16.6675L38.0407 18.9481V29.7809ZM52.1704 32.1931L51.381 31.2282L53.4862 29.5616V17.9832L63.9682 12.5449L68.3978 19.2551V19.4744L58.9245 25.3513V27.2372L64.1874 30.8335L69.0118 27.0618L69.6697 28.1143L60.635 35.4386L54.1002 30.6142L52.1704 32.1931ZM58.9245 23.8601L63.3541 21.0532L59.7578 15.878L58.9245 16.3605V23.8601ZM102.534 24.3864C102.534 25.439 102.534 26.4916 102.534 27.588L109.069 24.2549C108.894 23.29 108.587 22.369 108.148 21.5357L102.534 24.3864ZM102.534 22.983L107.49 20.4392C106.262 18.6411 104.508 17.2815 102.534 16.492C102.534 18.6411 102.534 20.834 102.534 22.983ZM102.534 28.9915C102.534 30.7897 102.534 32.544 102.534 34.3421C106.525 33.7281 109.244 30.1318 109.244 25.9653C109.244 25.8776 109.244 25.746 109.201 25.6145L102.534 28.9915ZM91.7013 26.0092C92.4907 25.1759 92.9732 24.0356 93.1486 22.7637C93.2802 21.8865 93.2802 21.0532 93.2802 20.1761C93.2802 15.878 93.2802 11.6238 93.2802 7.32578C91.3504 9.34324 90.3856 12.2378 90.3856 16.0096C90.3856 19.3428 90.7364 22.9391 91.7013 26.0092ZM92.4469 28.0705C94.0696 31.7984 96.8327 34.4737 101.218 34.4737C101.262 34.4737 101.262 34.4737 101.262 34.4737C101.262 28.5968 101.262 22.7637 101.262 16.9306L98.9378 19.2551V19.9568C98.9378 20.9655 98.894 21.9743 98.587 22.8953C97.7537 25.4829 95.3854 27.3249 92.4469 28.0705ZM98.9378 4.38732V13.9483V17.4569L106.876 9.60639C104.201 8.29066 101.657 6.09777 99.3325 4.34346C99.201 4.34346 99.0694 4.38732 98.9378 4.38732ZM106.394 11.8431C110.999 12.808 114.814 16.9306 114.814 22.4567C114.814 30.5265 107.534 36.0526 99.508 36.0526C90.7803 36.0526 84.3332 29.4301 84.3332 20.7901C84.3332 11.9308 91.4382 4.25574 99.5957 3.37859L103.674 0.878701C105.867 2.67687 108.455 4.12417 111.35 5.17676L112.797 3.72945L113.674 4.65047L106.394 11.8431ZM123.078 16.0535C121.762 16.7552 120.666 17.5446 120.666 18.7288C120.666 21.5357 125.315 22.7198 128.253 23.3777C128.253 22.0181 128.253 20.6147 128.253 19.2551L123.078 16.0535ZM123.824 35.2193C121.017 34.8684 117.903 32.7194 117.903 29.4739C117.903 27.1056 119.701 24.8689 122.99 23.1584C120.973 22.2813 119.394 21.0094 119.394 18.9919C119.394 17.0622 120.841 15.9658 122.157 15.264L126.981 12.7641L133.428 16.9306L135.227 15.4833L135.972 16.4482L133.692 18.2902V29.3424L135.797 31.4475L137.683 30.1757L137.902 31.0528L131.806 35.2193L128.429 31.8861L123.824 35.2193ZM128.253 24.6934C126.85 24.3864 125.227 23.9917 123.78 23.4654C123.473 23.904 123.21 24.6496 123.21 25.4829C123.21 27.9828 124.613 31.4475 127.332 31.4475C127.639 31.4475 127.946 31.4037 128.253 31.316C128.253 29.1231 128.253 26.8863 128.253 24.6934ZM145.702 27.3688C147.018 29.7809 149.386 30.3949 150.658 30.3949L153.158 28.5968L153.728 29.3424L147.281 35H146.667L140.044 30.5265V17.4131L149.123 12.3256L153.772 16.0535L149.605 19.2112L145.702 15.9658V27.3688ZM163.806 29.7809L165.21 31.1844L166.569 30.2634L167.359 31.2282L161.92 35.0439L157.403 31.1844L155.736 32.237L154.947 31.2282L157.929 29.3424V9.3871C157.929 8.68538 157.929 7.7205 155.824 7.06264V6.44863L162.973 1.405H163.806V17.6762L169.244 12.5449L173.893 16.4043L175.648 15.0009L176.393 15.9658L174.507 17.5008V30.0002C174.507 34.5176 173.016 39.9559 165.385 39.9559C164.903 39.9559 164.464 39.9121 164.025 39.8682V38.8156C167.271 38.8156 168.85 34.5614 168.85 30.0002V18.8604L166.218 16.6675L163.806 18.9481V29.7809ZM185.436 28.2898L190.479 31.6668V19.0358L185.436 15.7026V28.2898ZM178.287 32.0615L177.541 31.0967L179.778 29.2985C179.778 25.5267 179.778 21.755 179.778 17.9832L189.646 12.3256L195.961 17.1499V29.1231L186.269 35.0439L180.129 30.5704L178.287 32.0615ZM221.147 30.0002L221.981 31.2282L215.446 35.6579L211.016 31.6668L212.507 30.1757V19.3867L209.35 16.6675L207.464 18.1586V30.1757L209.35 31.8861L205.139 35.6579L200.096 31.6668L201.806 30.1757V18.5534L200.096 16.6675L198.429 17.7201L197.815 16.8429L203.911 12.6764L207.288 16.4482L212.069 12.6764L217.069 16.9306L218.911 15.4395L219.7 16.3605L217.551 18.1148V29.5616L219.437 31.2282L221.147 30.0002ZM236.121 7.98365L235.288 7.54507C235.42 7.19421 236.867 1.93129 242.261 1.93129C243.709 1.93129 245.244 2.28215 246.779 2.28215C247.963 2.28215 249.147 2.06286 250.331 1.36114L251.165 1.75586C249.761 3.29088 247.48 6.53635 243.621 6.53635C242.261 6.53635 240.902 6.18549 239.63 6.18549C238.402 6.18549 236.955 6.53635 236.121 7.98365ZM239.937 28.7283C241.867 27.6319 242.349 26.5355 242.349 20.0007V19.9129C241.954 19.9129 241.604 19.9129 241.253 19.9129C239.411 19.9129 238.49 20.9217 238.753 22.4128H237.919C237.481 21.6234 237.218 20.7462 237.218 19.8691C237.218 16.2728 239.981 15.4395 242.349 15.0447V13.9044C242.349 9.91339 244.279 9.3871 246.735 7.50122C247.524 6.93107 248.226 6.22934 248.884 5.48376L249.98 4.21189H251.252C251.252 7.76436 251.252 11.3168 251.252 14.8255H257.261V6.93107L256.077 5.83462L254.585 6.97492L254.542 5.79077L259.629 1.62428L262.962 4.34346L264.234 3.29088L265.024 4.25574L263.357 5.61534V29.3862L264.629 30.7458L265.988 29.6055L266.602 30.2195L260.813 35.1754L256.559 31.2721L255.463 32.1054L254.98 31.4475L257.261 29.6932V19.9568H251.252C251.252 23.597 251.252 27.2372 251.252 30.8774C251.472 30.9651 251.691 31.0967 251.954 31.2282L247.568 35.3947C246.735 34.8246 244.981 33.8158 242.612 33.8158C240.244 33.8158 237.919 34.8246 236.297 36.535H234.981C235.42 35.5702 238.577 29.6932 245.945 29.6932C247.305 29.6932 248.708 29.9125 249.98 30.3511C249.98 22.062 249.98 13.8167 249.98 5.52762C248.577 7.06264 248.007 8.29066 247.963 11.887V21.6673C247.963 23.2461 248.007 26.1846 244.805 28.2021C243.358 29.1231 241.647 29.6494 239.937 29.8248V28.7283ZM268.29 32.1931L267.5 31.2282L269.605 29.5616V17.9832L280.087 12.5449L284.517 19.2551V19.4744L275.044 25.3513V27.2372L280.307 30.8335L285.131 27.0618L285.789 28.1143L276.754 35.4386L270.219 30.6142L268.29 32.1931ZM275.044 23.8601L279.473 21.0532L275.877 15.878L275.044 16.3605V23.8601ZM299.936 29.5178L300.769 30.4827L294.19 35.2193L289.366 31.4475L287.919 32.5001L287.261 31.6668L290.024 29.7809V18.2025L288.533 16.3166L286.866 17.3692L286.252 16.5359L292.129 12.5449L295.331 16.0096L298.401 12.501H298.839C299.278 13.1589 300.023 13.5974 300.813 13.5974C301.734 13.5974 302.436 13.115 302.786 12.501H304.102C303.62 17.9394 301.076 18.6411 299.76 18.6411C298.795 18.6411 297.26 18.2025 295.813 16.8429V29.7809L297.567 31.1405L299.936 29.5178ZM310.467 16.0535C309.151 16.7552 308.055 17.5446 308.055 18.7288C308.055 21.5357 312.704 22.7198 315.642 23.3777C315.642 22.0181 315.642 20.6147 315.642 19.2551L310.467 16.0535ZM311.213 35.2193C308.406 34.8684 305.292 32.7194 305.292 29.4739C305.292 27.1056 307.09 24.8689 310.379 23.1584C308.362 22.2813 306.783 21.0094 306.783 18.9919C306.783 17.0622 308.23 15.9658 309.546 15.264L314.37 12.7641L320.817 16.9306L322.616 15.4833L323.361 16.4482L321.081 18.2902V29.3424L323.186 31.4475L325.072 30.1757L325.291 31.0528L319.195 35.2193L315.818 31.8861L311.213 35.2193ZM315.642 24.6934C314.239 24.3864 312.616 23.9917 311.169 23.4654C310.862 23.904 310.599 24.6496 310.599 25.4829C310.599 27.9828 312.002 31.4475 314.721 31.4475C315.028 31.4475 315.335 31.4037 315.642 31.316C315.642 29.1231 315.642 26.8863 315.642 24.6934ZM334.582 29.7809L336.248 31.4475L337.52 30.3949L338.134 31.2282L332.696 35.0439L328.047 31.0528L326.38 32.1054L325.766 31.2282L328.705 29.3424V10.2643C328.705 8.15908 328.53 7.67665 326.6 7.06264V6.44863L333.749 1.405H334.582V29.7809ZM345.727 14.6062V28.7722L350.375 32.0177V18.8165L345.727 14.6062ZM345.42 14.2992L341.297 10.5713L340.376 10.7028V2.8523L355.507 16.1412L357.13 14.8255L357.919 15.7903L356.033 17.3253V29.7371L346.384 35.3947L340.069 31.0967V17.5885L345.42 14.2992Z" fill="black"/>
</svg>
