<svg width="244" height="128" viewBox="0 0 244 128" fill="none" xmlns="http://www.w3.org/2000/svg">
<path d="M33.788 5.73849C33.6476 7.52789 33.5424 9.24711 33.4722 10.8962C33.4371 12.5452 33.4196 13.8083 33.4196 14.6855C33.4196 15.4574 33.4371 16.1942 33.4722 16.8959C33.5073 17.5976 33.5424 18.1941 33.5775 18.6853H32.367C31.8056 15.738 31.0863 13.4048 30.2092 11.6856C29.3671 9.96637 28.3496 8.7559 27.1567 8.05418C25.9638 7.31737 24.5603 6.94896 22.9464 6.94896H21.7359V37.0003C21.7359 38.4037 21.8762 39.4563 22.1569 40.158C22.4727 40.8597 23.0341 41.3334 23.8411 41.579C24.648 41.7895 25.8234 41.9123 27.3672 41.9474V43C26.2795 42.9649 24.8235 42.9298 22.999 42.8947C21.2096 42.8597 19.3325 42.8421 17.3677 42.8421C15.4379 42.8421 13.6134 42.8597 11.8942 42.8947C10.175 42.9298 8.78908 42.9649 7.7365 43V41.9474C9.31538 41.9123 10.5083 41.7895 11.3153 41.579C12.1223 41.3334 12.6661 40.8597 12.9468 40.158C13.2275 39.4563 13.3678 38.4037 13.3678 37.0003V6.94896H12.21C10.596 6.94896 9.19258 7.31737 7.99965 8.05418C6.80672 8.7559 5.78922 9.96637 4.94715 11.6856C4.10508 13.3697 3.36827 15.703 2.73672 18.6853H1.52625C1.59642 18.1941 1.63151 17.5976 1.63151 16.8959C1.66659 16.1942 1.68414 15.4574 1.68414 14.6855C1.68414 13.8083 1.64905 12.5452 1.57888 10.8962C1.54379 9.24711 1.45608 7.52789 1.31573 5.73849C2.92969 5.77358 4.684 5.80866 6.57866 5.84375C8.5084 5.87883 10.4381 5.89638 12.3679 5.89638C14.2976 5.89638 16.0344 5.89638 17.5782 5.89638C19.157 5.89638 20.8938 5.89638 22.7885 5.89638C24.7182 5.89638 26.6479 5.87883 28.5777 5.84375C30.5074 5.80866 32.2442 5.77358 33.788 5.73849ZM46.7932 1.84392V19.9484C47.6703 18.1239 48.8457 16.8608 50.3193 16.1591C51.828 15.4223 53.5122 15.0539 55.3717 15.0539C56.8804 15.0539 58.0909 15.2468 59.0031 15.6328C59.9154 15.9836 60.6347 16.4749 61.1609 17.1064C61.7574 17.773 62.1784 18.6327 62.4241 19.6852C62.7047 20.7378 62.8451 22.1588 62.8451 23.9482V38.1055C62.8451 39.5791 63.0907 40.5791 63.5819 41.1053C64.1082 41.6316 64.9853 41.8948 66.2134 41.8948V43C65.5467 42.9649 64.5292 42.9298 63.1609 42.8947C61.8276 42.8246 60.5294 42.7895 59.2663 42.7895C57.8979 42.7895 56.5647 42.8246 55.2665 42.8947C54.0034 42.9298 53.056 42.9649 52.4245 43V41.8948C53.4771 41.8948 54.2139 41.6316 54.6349 41.1053C55.056 40.5791 55.2665 39.5791 55.2665 38.1055V21.7378C55.2665 20.8606 55.1788 20.1063 55.0033 19.4747C54.8279 18.8081 54.4946 18.2993 54.0034 17.9485C53.5472 17.5625 52.8806 17.3696 52.0035 17.3696C51.0561 17.3696 50.179 17.6327 49.372 18.159C48.6001 18.6502 47.9685 19.3519 47.4773 20.2642C47.0212 21.1764 46.7932 22.229 46.7932 23.4219V38.1055C46.7932 39.5791 47.0037 40.5791 47.4247 41.1053C47.8457 41.6316 48.5826 41.8948 49.6351 41.8948V43C49.0036 42.9649 48.0738 42.9298 46.8458 42.8947C45.6178 42.8246 44.3722 42.7895 43.1091 42.7895C41.7408 42.7895 40.3548 42.8246 38.9514 42.8947C37.583 42.9298 36.548 42.9649 35.8463 43V41.8948C37.0743 41.8948 37.9339 41.6316 38.4251 41.1053C38.9514 40.5791 39.2145 39.5791 39.2145 38.1055V8.15943C39.2145 6.58056 38.9689 5.42271 38.4777 4.6859C38.0216 3.91401 37.1445 3.52806 35.8463 3.52806V2.42285C36.969 2.52811 38.0567 2.58074 39.1093 2.58074C40.5478 2.58074 41.9162 2.52811 43.2144 2.42285C44.5126 2.2825 45.7055 2.08953 46.7932 1.84392ZM81.7073 15.0539C84.7949 15.0539 87.2159 15.9661 88.9702 17.7906C90.7245 19.6151 91.6016 22.5974 91.6016 26.7376H74.2866L74.1813 25.7376H84.9703C85.0054 24.0184 84.9002 22.4395 84.6546 21.001C84.409 19.5274 84.023 18.352 83.4967 17.4748C82.9704 16.5977 82.2687 16.1591 81.3915 16.1591C80.1635 16.1591 79.1109 16.931 78.2338 18.4748C77.3917 20.0186 76.883 22.5799 76.7075 26.1586L76.8654 26.4744C76.8303 26.8954 76.7953 27.334 76.7602 27.7901C76.7602 28.2463 76.7602 28.7199 76.7602 29.2111C76.7602 31.6321 77.0935 33.5969 77.7601 35.1056C78.4619 36.6143 79.339 37.7195 80.3916 38.4213C81.4442 39.0879 82.5143 39.4212 83.602 39.4212C84.3388 39.4212 85.0931 39.316 85.865 39.1054C86.672 38.8598 87.479 38.4388 88.286 37.8423C89.093 37.2108 89.8473 36.3336 90.549 35.2109L91.4964 35.5266C91.0753 36.8599 90.4087 38.1581 89.4965 39.4212C88.5842 40.6843 87.4264 41.7194 86.0229 42.5263C84.6195 43.3333 82.9353 43.7368 80.9705 43.7368C78.5847 43.7368 76.4795 43.2281 74.655 42.2106C72.8305 41.1931 71.392 39.6493 70.3394 37.5792C69.3219 35.5091 68.8132 32.8776 68.8132 29.6848C68.8132 26.4218 69.357 23.7026 70.4447 21.5273C71.5674 19.3519 73.0937 17.738 75.0234 16.6854C76.9882 15.5977 79.2162 15.0539 81.7073 15.0539ZM21.3148 47.0017C23.7007 47.0017 25.648 47.335 27.1567 48.0016C28.6654 48.6683 30.0162 49.4753 31.2091 50.4226C31.6302 50.7384 31.981 50.8962 32.2617 50.8962C32.9284 50.8962 33.3669 49.8437 33.5775 47.7385H34.7879C34.7178 49.1069 34.6651 50.7734 34.63 52.7383C34.595 54.668 34.5774 57.2468 34.5774 60.4748H33.3669C33.1213 58.3696 32.7354 56.5451 32.2091 55.0013C31.7179 53.4224 30.7881 52.0716 29.4198 50.9489C28.5777 50.1419 27.5251 49.5103 26.262 49.0542C25.034 48.5981 23.7884 48.37 22.5253 48.37C20.5956 48.37 18.9465 48.8788 17.5782 49.8963C16.2098 50.8787 15.0871 52.2295 14.2099 53.9487C13.3327 55.668 12.6836 57.6152 12.2626 59.7906C11.8416 61.9308 11.6311 64.1588 11.6311 66.4745C11.6311 72.79 12.4907 77.4038 14.2099 80.316C15.9642 83.2281 18.4729 84.6842 21.7359 84.6842C22.5779 84.6842 23.3148 84.579 23.9463 84.3684C24.5779 84.1579 25.0866 83.9123 25.4726 83.6316C25.9638 83.2808 26.2971 82.9124 26.4725 82.5264C26.6479 82.1054 26.7357 81.5616 26.7357 80.8949V75.7373C26.7357 74.1233 26.5953 72.9304 26.3146 72.1585C26.069 71.3515 25.5603 70.8076 24.7884 70.527C24.0165 70.2463 22.8937 70.0884 21.4201 70.0533V69.0007C22.1569 69.0358 23.0341 69.0709 24.0516 69.106C25.1042 69.106 26.1918 69.1235 27.3146 69.1586C28.4373 69.1586 29.4724 69.1586 30.4197 69.1586C31.8933 69.1586 33.2441 69.1411 34.4722 69.106C35.7002 69.0709 36.7001 69.0358 37.472 69.0007V70.0533C36.8054 70.0884 36.2966 70.2112 35.9458 70.4217C35.63 70.6322 35.4019 71.0532 35.2616 71.6848C35.1563 72.3163 35.1037 73.2812 35.1037 74.5794V85H34.0511C34.016 84.4035 33.8757 83.7544 33.6301 83.0527C33.4196 82.351 33.0512 82.0001 32.5249 82.0001C32.2793 82.0001 31.946 82.0703 31.5249 82.2106C31.139 82.3159 30.525 82.6141 29.6829 83.1053C28.3847 83.8422 27.0163 84.4737 25.5778 85C24.1393 85.4912 22.6306 85.7368 21.0517 85.7368C16.9817 85.7368 13.5433 84.9825 10.7364 83.4738C7.92947 81.965 5.80676 79.8072 4.36823 77.0004C2.96478 74.1584 2.26306 70.755 2.26306 66.7903C2.26306 62.7905 3.07004 59.3169 4.684 56.3697C6.33305 53.4224 8.57857 51.1243 11.4205 49.4753C14.2976 47.8262 17.5957 47.0017 21.3148 47.0017ZM57.7088 47.6332L70.4977 80.5791C70.9889 81.8422 71.5327 82.7194 72.1292 83.2106C72.7608 83.6667 73.3221 83.9123 73.8133 83.9474V85C72.7608 84.9298 71.5152 84.8947 70.0767 84.8947C68.6732 84.8597 67.2522 84.8421 65.8137 84.8421C64.1997 84.8421 62.6735 84.8597 61.235 84.8947C59.7964 84.8947 58.6561 84.9298 57.8141 85V83.9474C59.6035 83.8772 60.7262 83.579 61.1823 83.0527C61.6735 82.4913 61.5683 81.316 60.8666 79.5266L51.9196 55.054L52.8669 53.6856L44.8673 74.5268C44.0954 76.4565 43.6217 78.0354 43.4463 79.2634C43.3059 80.4914 43.3936 81.4388 43.7094 82.1054C44.0603 82.772 44.6041 83.2457 45.3409 83.5264C46.1128 83.772 47.0251 83.9123 48.0776 83.9474V85C46.9198 84.9298 45.8146 84.8947 44.762 84.8947C43.7094 84.8597 42.6393 84.8421 41.5516 84.8421C40.7797 84.8421 40.0429 84.8597 39.3412 84.8947C38.6746 84.8947 38.0781 84.9298 37.5518 85V83.9474C38.2886 83.8071 39.043 83.3334 39.8149 82.5264C40.5867 81.7194 41.3411 80.3511 42.0779 78.4213L54.0774 47.6332C54.6388 47.6683 55.2352 47.6859 55.8668 47.6859C56.5334 47.6859 57.1474 47.6683 57.7088 47.6332ZM61.3928 69.8428V70.8954H45.7093L46.2356 69.8428H61.3928ZM93.8244 47.0017C96.1401 47.0017 98.0347 47.3525 99.5083 48.0543C101.017 48.7209 102.35 49.5103 103.508 50.4226C104.21 50.9489 104.736 51.019 105.087 50.6331C105.473 50.2121 105.736 49.2472 105.876 47.7385H107.087C107.017 49.1069 106.964 50.7734 106.929 52.7383C106.894 54.668 106.876 57.2468 106.876 60.4748H105.666C105.491 58.8608 105.262 57.4924 104.982 56.3697C104.701 55.2118 104.315 54.1943 103.824 53.3172C103.333 52.44 102.631 51.6506 101.719 50.9489C100.842 50.0717 99.8241 49.4226 98.6663 49.0016C97.5084 48.5806 96.298 48.37 95.0349 48.37C93.1402 48.37 91.5262 48.8788 90.193 49.8963C88.8597 50.8787 87.772 52.2295 86.93 53.9487C86.123 55.668 85.5265 57.6152 85.1406 59.7906C84.7546 61.9308 84.5616 64.1588 84.5616 66.4745C84.5616 68.8253 84.7546 71.0883 85.1406 73.2637C85.5616 75.4039 86.1931 77.3161 87.0352 79.0003C87.9124 80.6844 89.0351 82.0177 90.4035 83.0001C91.7718 83.9825 93.3858 84.4737 95.2454 84.4737C96.4032 84.4737 97.5611 84.2632 98.7189 83.8422C99.9118 83.386 100.929 82.7369 101.771 81.8949C103.14 80.8423 104.07 79.5441 104.561 78.0003C105.052 76.4214 105.42 74.3338 105.666 71.7374H106.876C106.876 75.0706 106.894 77.7722 106.929 79.8423C106.964 81.8773 107.017 83.5966 107.087 85H105.876C105.736 83.4913 105.491 82.544 105.14 82.158C104.824 81.7721 104.28 81.8247 103.508 82.3159C102.21 83.2281 100.824 84.0351 99.3505 84.7369C97.9119 85.4035 96.0524 85.7368 93.7718 85.7368C90.0526 85.7368 86.7896 84.9825 83.9827 83.4738C81.2109 81.965 79.0531 79.7897 77.5093 76.9477C75.9655 74.1057 75.1936 70.6848 75.1936 66.685C75.1936 62.7554 75.9831 59.3169 77.5619 56.3697C79.1759 53.4224 81.3688 51.1243 84.1406 49.4753C86.9475 47.8262 90.1754 47.0017 93.8244 47.0017ZM134.142 85V83.9474C135.265 83.8772 136.107 83.7369 136.669 83.5264C137.23 83.3159 137.598 82.8948 137.774 82.2633C137.984 81.6317 138.09 80.6844 138.09 79.4213V53.3172C138.09 52.019 137.984 51.0717 137.774 50.4752C137.598 49.8437 137.213 49.4226 136.616 49.2121C136.055 48.9665 135.23 48.8262 134.142 48.7911V47.7385C135.09 47.7736 136.318 47.8087 137.827 47.8437C139.37 47.8788 140.897 47.8964 142.405 47.8964C144.019 47.8964 145.528 47.8788 146.931 47.8437C148.37 47.8087 149.528 47.7736 150.405 47.7385V48.7911C149.282 48.8262 148.423 48.9665 147.826 49.2121C147.265 49.4226 146.896 49.8437 146.721 50.4752C146.545 51.0717 146.458 52.019 146.458 53.3172V79.4213C146.458 80.6844 146.545 81.6317 146.721 82.2633C146.931 82.8948 147.317 83.3159 147.879 83.5264C148.44 83.7369 149.282 83.8772 150.405 83.9474V85C149.528 84.9298 148.37 84.8947 146.931 84.8947C145.528 84.8597 144.019 84.8421 142.405 84.8421C140.897 84.8421 139.37 84.8597 137.827 84.8947C136.318 84.8947 135.09 84.9298 134.142 85ZM111.828 85V83.9474C112.95 83.8772 113.793 83.7369 114.354 83.5264C114.915 83.3159 115.284 82.8948 115.459 82.2633C115.67 81.6317 115.775 80.6844 115.775 79.4213V53.3172C115.775 52.019 115.67 51.0717 115.459 50.4752C115.284 49.8437 114.898 49.4226 114.301 49.2121C113.74 48.9665 112.915 48.8262 111.828 48.7911V47.7385C112.74 47.7736 113.915 47.8087 115.354 47.8437C116.827 47.8788 118.424 47.8964 120.143 47.8964C121.617 47.8964 123.073 47.8788 124.511 47.8437C125.95 47.8087 127.143 47.7736 128.09 47.7385V48.7911C126.967 48.8262 126.108 48.9665 125.511 49.2121C124.95 49.4226 124.582 49.8437 124.406 50.4752C124.231 51.0717 124.143 52.019 124.143 53.3172V79.4213C124.143 80.6844 124.231 81.6317 124.406 82.2633C124.617 82.8948 125.003 83.3159 125.564 83.5264C126.125 83.7369 126.967 83.8772 128.09 83.9474V85C127.143 84.9298 125.95 84.8947 124.511 84.8947C123.073 84.8597 121.617 84.8421 120.143 84.8421C118.424 84.8421 116.827 84.8597 115.354 84.8947C113.915 84.8947 112.74 84.9298 111.828 85ZM120.722 66.7903V65.7377H141.511V66.7903H120.722ZM172.614 47.0017C176.333 47.0017 179.579 47.756 182.35 49.2647C185.157 50.7734 187.333 52.9488 188.877 55.7908C190.42 58.5977 191.192 62.0186 191.192 66.0535C191.192 69.9831 190.403 73.4216 188.824 76.3688C187.245 79.316 185.035 81.6142 182.193 83.2632C179.386 84.9123 176.175 85.7368 172.561 85.7368C168.842 85.7368 165.579 84.9825 162.772 83.4738C160.001 81.965 157.843 79.7897 156.299 76.9477C154.755 74.1057 153.983 70.6848 153.983 66.685C153.983 62.7554 154.773 59.3169 156.352 56.3697C157.966 53.4224 160.158 51.1243 162.93 49.4753C165.737 47.8262 168.965 47.0017 172.614 47.0017ZM172.404 47.949C170.439 47.949 168.72 48.7384 167.246 50.3173C165.807 51.8962 164.685 54.0715 163.878 56.8434C163.106 59.6152 162.72 62.8255 162.72 66.4745C162.72 70.1936 163.158 73.4391 164.036 76.2109C164.948 78.9476 166.158 81.0703 167.667 82.5791C169.211 84.0527 170.912 84.7895 172.772 84.7895C174.737 84.7895 176.438 84 177.877 82.4212C179.351 80.8423 180.473 78.6669 181.245 75.8951C182.052 73.0882 182.456 69.8779 182.456 66.264C182.456 62.5098 182 59.2643 181.087 56.5276C180.21 53.7909 179 51.6857 177.456 50.2121C175.947 48.7034 174.263 47.949 172.404 47.949ZM229.515 47.7385V48.7911C228.392 48.9314 227.55 49.2297 226.988 49.6858C226.427 50.1068 226.041 50.791 225.83 51.7383C225.655 52.6856 225.567 54.0189 225.567 55.7381V85.1053C225.146 85.0702 224.708 85.0526 224.252 85.0526C223.831 85.0526 223.374 85.0702 222.883 85.1053L200.042 56.1592V76.3688C200.042 78.2985 200.147 79.7897 200.358 80.8423C200.568 81.8598 201.025 82.5966 201.726 83.0527C202.463 83.4738 203.603 83.772 205.147 83.9474V85C204.481 84.9298 203.603 84.8947 202.516 84.8947C201.428 84.8597 200.411 84.8421 199.463 84.8421C198.656 84.8421 197.832 84.8597 196.99 84.8947C196.148 84.8947 195.446 84.9298 194.884 85V83.9474C196.007 83.772 196.849 83.4738 197.411 83.0527C197.972 82.6317 198.34 81.9475 198.516 81.0002C198.726 80.0178 198.832 78.6845 198.832 77.0004V53.3172C198.832 52.019 198.726 51.0717 198.516 50.4752C198.34 49.8437 197.955 49.4226 197.358 49.2121C196.797 48.9665 195.972 48.8262 194.884 48.7911V47.7385C195.446 47.7736 196.148 47.8087 196.99 47.8437C197.832 47.8788 198.656 47.8964 199.463 47.8964C200.305 47.8964 201.112 47.8788 201.884 47.8437C202.656 47.8087 203.358 47.7736 203.989 47.7385L224.357 72.8426V56.3697C224.357 54.4399 224.252 52.9663 224.041 51.9488C223.831 50.8962 223.357 50.1419 222.62 49.6858C221.918 49.2297 220.796 48.9314 219.252 48.7911V47.7385C219.918 47.7736 220.796 47.8087 221.883 47.8437C222.971 47.8788 223.988 47.8964 224.936 47.8964C225.778 47.8964 226.602 47.8788 227.409 47.8437C228.251 47.8087 228.953 47.7736 229.515 47.7385ZM24.1042 127V125.947C25.227 125.877 26.069 125.737 26.6304 125.526C27.1918 125.316 27.5602 124.895 27.7356 124.263C27.9461 123.632 28.0514 122.684 28.0514 121.421V95.3172C28.0514 94.019 27.9461 93.0717 27.7356 92.4752C27.5602 91.8437 27.1742 91.4226 26.5778 91.2121C26.0164 90.9665 25.1919 90.8262 24.1042 90.7911V89.7385C25.0515 89.7736 26.2795 89.8087 27.7882 89.8437C29.332 89.8788 30.8583 89.8964 32.367 89.8964C33.981 89.8964 35.4897 89.8788 36.8931 89.8437C38.3316 89.8087 39.4895 89.7736 40.3666 89.7385V90.7911C39.2439 90.8262 38.3843 90.9665 37.7878 91.2121C37.2264 91.4226 36.858 91.8437 36.6826 92.4752C36.5072 93.0717 36.4194 94.019 36.4194 95.3172V121.421C36.4194 122.684 36.5072 123.632 36.6826 124.263C36.8931 124.895 37.2791 125.316 37.8404 125.526C38.4018 125.737 39.2439 125.877 40.3666 125.947V127C39.4895 126.93 38.3316 126.895 36.8931 126.895C35.4897 126.86 33.981 126.842 32.367 126.842C30.8583 126.842 29.332 126.86 27.7882 126.895C26.2795 126.895 25.0515 126.93 24.1042 127ZM1.78939 127V125.947C2.91215 125.877 3.75422 125.737 4.3156 125.526C4.87698 125.316 5.24538 124.895 5.42081 124.263C5.63133 123.632 5.73659 122.684 5.73659 121.421V95.3172C5.73659 94.019 5.63133 93.0717 5.42081 92.4752C5.24538 91.8437 4.85943 91.4226 4.26297 91.2121C3.70159 90.9665 2.87707 90.8262 1.78939 90.7911V89.7385C2.70163 89.7736 3.87702 89.8087 5.31555 89.8437C6.78917 89.8788 8.38559 89.8964 10.1048 89.8964C11.5784 89.8964 13.0345 89.8788 14.473 89.8437C15.9116 89.8087 17.1045 89.7736 18.0518 89.7385V90.7911C16.9291 90.8262 16.0695 90.9665 15.473 91.2121C14.9116 91.4226 14.5432 91.8437 14.3678 92.4752C14.1924 93.0717 14.1046 94.019 14.1046 95.3172V121.421C14.1046 122.684 14.1924 123.632 14.3678 124.263C14.5783 124.895 14.9643 125.316 15.5256 125.526C16.087 125.737 16.9291 125.877 18.0518 125.947V127C17.1045 126.93 15.9116 126.895 14.473 126.895C13.0345 126.86 11.5784 126.842 10.1048 126.842C8.38559 126.842 6.78917 126.86 5.31555 126.895C3.87702 126.895 2.70163 126.93 1.78939 127ZM10.6837 108.79V107.738H31.4723V108.79H10.6837ZM72.0392 89.7385C71.8988 91.2823 71.7936 92.7734 71.7234 94.212C71.6883 95.6505 71.6708 96.7557 71.6708 97.5276C71.6708 98.2293 71.6883 98.896 71.7234 99.5275C71.7585 100.159 71.7936 100.685 71.8286 101.106H70.6182C70.2673 98.5451 69.7235 96.5277 68.9867 95.054C68.2499 93.5453 67.285 92.4928 66.0921 91.8963C64.9342 91.2647 63.5659 90.949 61.987 90.949H59.8292C58.8117 90.949 58.0398 91.0367 57.5135 91.2121C56.9872 91.3875 56.6363 91.7384 56.4609 92.2647C56.2855 92.791 56.1978 93.598 56.1978 94.6856V122.053C56.1978 123.141 56.2855 123.948 56.4609 124.474C56.6363 125 56.9872 125.351 57.5135 125.526C58.0398 125.702 58.8117 125.79 59.8292 125.79H62.408C63.9869 125.79 65.3728 125.456 66.5657 124.79C67.7937 124.088 68.8288 122.912 69.6708 121.263C70.548 119.614 71.2146 117.386 71.6708 114.579H72.8812C72.776 115.702 72.7233 117.176 72.7233 119C72.7233 119.807 72.7409 120.948 72.776 122.421C72.8111 123.895 72.9163 125.421 73.0918 127C71.3024 126.93 69.2849 126.895 67.0394 126.895C64.7939 126.86 62.794 126.842 61.0397 126.842C60.1625 126.842 59.0397 126.842 57.6714 126.842C56.303 126.842 54.8294 126.86 53.2505 126.895C51.6716 126.895 50.0752 126.912 48.4613 126.947C46.8473 126.947 45.321 126.965 43.8825 127V125.947C45.0053 125.877 45.8473 125.737 46.4087 125.526C46.9701 125.316 47.3385 124.895 47.5139 124.263C47.7245 123.632 47.8297 122.684 47.8297 121.421V95.3172C47.8297 94.019 47.7245 93.0717 47.5139 92.4752C47.3385 91.8437 46.9526 91.4226 46.3561 91.2121C45.7947 90.9665 44.9702 90.8262 43.8825 90.7911V89.7385C45.321 89.7736 46.8473 89.8087 48.4613 89.8437C50.0752 89.8437 51.6716 89.8613 53.2505 89.8964C54.8294 89.8964 56.303 89.8964 57.6714 89.8964C59.0397 89.8964 60.1625 89.8964 61.0397 89.8964C62.6536 89.8964 64.4781 89.8964 66.5131 89.8964C68.5832 89.8613 70.4252 89.8087 72.0392 89.7385ZM63.829 107.738C63.829 107.738 63.829 107.913 63.829 108.264C63.829 108.615 63.829 108.79 63.829 108.79H54.6189C54.6189 108.79 54.6189 108.615 54.6189 108.264C54.6189 107.913 54.6189 107.738 54.6189 107.738H63.829ZM65.3553 100.791C65.2149 102.791 65.1447 104.317 65.1447 105.369C65.1798 106.422 65.1974 107.387 65.1974 108.264C65.1974 109.141 65.2149 110.106 65.25 111.159C65.2851 112.211 65.3728 113.737 65.5131 115.737H64.3027C64.1272 114.509 63.7939 113.369 63.3027 112.316C62.8466 111.264 62.18 110.422 61.3028 109.79C60.4256 109.124 59.2853 108.79 57.8819 108.79V107.738C58.9345 107.738 59.8292 107.527 60.566 107.106C61.3028 106.65 61.8993 106.071 62.3554 105.369C62.8466 104.633 63.2325 103.861 63.5132 103.054C63.7939 102.247 64.0044 101.492 64.1448 100.791H65.3553ZM77.2384 89.7385C78.1155 89.7736 79.2909 89.8087 80.7645 89.8437C82.2732 89.8788 83.7644 89.8964 85.238 89.8964C86.9221 89.8964 88.5536 89.8788 90.1325 89.8437C91.7114 89.8087 92.8342 89.7911 93.5008 89.7911C96.7638 89.7911 99.4654 90.1595 101.606 90.8963C103.781 91.5981 105.395 92.6331 106.448 94.0015C107.535 95.3698 108.079 97.0189 108.079 98.9486C108.079 100.142 107.833 101.352 107.342 102.58C106.851 103.773 106.009 104.896 104.816 105.948C103.658 106.966 102.062 107.79 100.027 108.422C97.9918 109.018 95.4305 109.317 92.3429 109.317H87.2905V108.264H91.8167C93.8867 108.264 95.4481 107.878 96.5007 107.106C97.5883 106.299 98.3251 105.247 98.7111 103.948C99.1321 102.615 99.3426 101.141 99.3426 99.5275C99.3426 96.7557 98.8514 94.6155 97.869 93.1068C96.8866 91.563 95.2025 90.7911 92.8166 90.7911C91.4483 90.7911 90.5536 91.0893 90.1325 91.6858C89.7466 92.2822 89.5536 93.4927 89.5536 95.3172V121.421C89.5536 122.684 89.6413 123.632 89.8167 124.263C90.0273 124.895 90.4132 125.316 90.9746 125.526C91.536 125.737 92.378 125.877 93.5008 125.947V127C92.5535 126.93 91.3605 126.895 89.922 126.895C88.4835 126.86 87.0274 126.842 85.5538 126.842C83.8696 126.842 82.2732 126.86 80.7645 126.895C79.2909 126.895 78.1155 126.93 77.2384 127V125.947C78.3611 125.877 79.2032 125.737 79.7646 125.526C80.3259 125.316 80.6943 124.895 80.8698 124.263C81.0803 123.632 81.1855 122.684 81.1855 121.421V95.3172C81.1855 94.019 81.0803 93.0717 80.8698 92.4752C80.6943 91.8437 80.3084 91.4226 79.7119 91.2121C79.1506 90.9665 78.326 90.8262 77.2384 90.7911V89.7385ZM87.1853 108.422C88.694 108.457 89.9922 108.527 91.0798 108.632C92.2026 108.738 93.185 108.843 94.0271 108.948C94.8692 109.018 95.6235 109.071 96.2901 109.106C99.483 109.387 101.834 110.071 103.342 111.159C104.886 112.246 105.886 113.878 106.342 116.053L107.553 121.474C107.869 122.877 108.202 123.86 108.553 124.421C108.904 124.983 109.412 125.263 110.079 125.263C110.535 125.228 110.904 125.123 111.184 124.947C111.5 124.737 111.833 124.439 112.184 124.053L112.921 124.684C111.974 125.772 110.956 126.544 109.868 127C108.781 127.491 107.465 127.737 105.921 127.737C104.027 127.737 102.465 127.333 101.237 126.526C100.009 125.719 99.2023 124.228 98.8163 122.053L97.869 116.79C97.6234 115.316 97.3252 114.036 96.9743 112.948C96.6235 111.825 96.1323 110.948 95.5007 110.317C94.9042 109.65 94.0622 109.317 92.9745 109.317H87.2905L87.1853 108.422ZM131.256 89.6332L144.045 122.579C144.536 123.842 145.08 124.719 145.677 125.211C146.308 125.667 146.869 125.912 147.361 125.947V127C146.308 126.93 145.063 126.895 143.624 126.895C142.221 126.86 140.8 126.842 139.361 126.842C137.747 126.842 136.221 126.86 134.782 126.895C133.344 126.895 132.203 126.93 131.361 127V125.947C133.151 125.877 134.274 125.579 134.73 125.053C135.221 124.491 135.116 123.316 134.414 121.527L125.467 97.054L126.414 95.6856L118.415 116.527C117.643 118.457 117.169 120.035 116.994 121.263C116.853 122.491 116.941 123.439 117.257 124.105C117.608 124.772 118.151 125.246 118.888 125.526C119.66 125.772 120.572 125.912 121.625 125.947V127C120.467 126.93 119.362 126.895 118.309 126.895C117.257 126.86 116.187 126.842 115.099 126.842C114.327 126.842 113.59 126.86 112.889 126.895C112.222 126.895 111.625 126.93 111.099 127V125.947C111.836 125.807 112.59 125.333 113.362 124.526C114.134 123.719 114.888 122.351 115.625 120.421L127.625 89.6332C128.186 89.6683 128.783 89.6859 129.414 89.6859C130.081 89.6859 130.695 89.6683 131.256 89.6332ZM134.94 111.843V112.895H119.257L119.783 111.843H134.94ZM164.332 89.7385V90.7911C163.139 90.8262 162.226 90.9665 161.595 91.2121C160.998 91.4226 160.595 91.8437 160.384 92.4752C160.174 93.0717 160.069 94.019 160.069 95.3172V122.053C160.069 123.141 160.139 123.948 160.279 124.474C160.455 125 160.77 125.351 161.226 125.526C161.718 125.702 162.437 125.79 163.384 125.79H165.963C167.156 125.79 168.279 125.509 169.331 124.947C170.384 124.386 171.331 123.597 172.173 122.579C173.015 121.527 173.717 120.281 174.278 118.842C174.84 117.404 175.261 115.808 175.542 114.053H176.752C176.647 115.246 176.594 116.79 176.594 118.685C176.594 119.492 176.612 120.667 176.647 122.211C176.682 123.755 176.787 125.351 176.963 127C175.173 126.93 173.156 126.895 170.91 126.895C168.665 126.86 166.665 126.842 164.91 126.842C164.033 126.842 162.911 126.842 161.542 126.842C160.174 126.842 158.7 126.86 157.121 126.895C155.542 126.895 153.946 126.912 152.332 126.947C150.718 126.947 149.192 126.965 147.753 127V125.947C148.876 125.877 149.718 125.737 150.28 125.526C150.841 125.316 151.209 124.895 151.385 124.263C151.595 123.632 151.701 122.684 151.701 121.421V95.3172C151.701 94.019 151.595 93.0717 151.385 92.4752C151.209 91.8437 150.823 91.4226 150.227 91.2121C149.666 90.9665 148.841 90.8262 147.753 90.7911V89.7385C148.63 89.7736 149.806 89.8087 151.279 89.8437C152.788 89.8788 154.385 89.8964 156.069 89.8964C157.613 89.8964 159.121 89.8788 160.595 89.8437C162.104 89.8087 163.349 89.7736 164.332 89.7385ZM196.189 89.7385C203.101 89.7385 208.242 91.3174 211.61 94.4751C214.978 97.5978 216.662 102.089 216.662 107.948C216.662 111.773 215.838 115.123 214.189 118C212.54 120.842 210.136 123.053 206.978 124.632C203.856 126.211 200.102 127 195.716 127C195.154 127 194.418 126.982 193.505 126.947C192.593 126.912 191.646 126.895 190.663 126.895C189.681 126.86 188.804 126.842 188.032 126.842C186.488 126.842 184.962 126.86 183.453 126.895C181.98 126.895 180.804 126.93 179.927 127V125.947C181.05 125.877 181.892 125.737 182.453 125.526C183.015 125.316 183.383 124.895 183.558 124.263C183.769 123.632 183.874 122.684 183.874 121.421V95.3172C183.874 94.019 183.769 93.0717 183.558 92.4752C183.383 91.8437 182.997 91.4226 182.401 91.2121C181.839 90.9665 181.015 90.8262 179.927 90.7911V89.7385C180.804 89.7736 181.98 89.8262 183.453 89.8964C184.962 89.9315 186.453 89.9315 187.927 89.8964C189.19 89.8613 190.611 89.8262 192.19 89.7911C193.804 89.756 195.137 89.7385 196.189 89.7385ZM196.137 90.6858C194.523 90.6858 193.47 90.984 192.979 91.5805C192.488 92.177 192.242 93.3875 192.242 95.2119V121.527C192.242 123.351 192.488 124.562 192.979 125.158C193.505 125.754 194.576 126.053 196.189 126.053C199.137 126.053 201.452 125.368 203.137 124C204.856 122.597 206.084 120.562 206.821 117.895C207.557 115.229 207.926 111.983 207.926 108.159C207.926 104.229 207.522 100.984 206.715 98.4223C205.943 95.8259 204.698 93.8962 202.979 92.6331C201.259 91.3349 198.979 90.6858 196.137 90.6858Z" fill="#0D1C51"/>
<line x1="91" y1="36.3146" x2="231" y2="36.3146" stroke="#0D1C51" stroke-width="1.3709"/>
</svg>
