<svg width="463" height="106" viewBox="0 0 463 106" fill="none" xmlns="http://www.w3.org/2000/svg">
<path d="M218.595 10.7385C218.455 12.5279 218.349 14.2471 218.279 15.8962C218.244 17.5452 218.227 18.8083 218.227 19.6855C218.227 20.4574 218.244 21.1942 218.279 21.8959C218.314 22.5976 218.349 23.1941 218.384 23.6853H217.174C216.613 20.738 215.893 18.4048 215.016 16.6856C214.174 14.9664 213.157 13.7559 211.964 13.0542C210.771 12.3174 209.367 11.949 207.753 11.949H206.543V42.0003C206.543 43.4037 206.683 44.4563 206.964 45.158C207.28 45.8597 207.841 46.3334 208.648 46.579C209.455 46.7895 210.63 46.9123 212.174 46.9474V48C211.087 47.9649 209.63 47.9298 207.806 47.8947C206.017 47.8597 204.139 47.8421 202.175 47.8421C200.245 47.8421 198.42 47.8597 196.701 47.8947C194.982 47.9298 193.596 47.9649 192.543 48V46.9474C194.122 46.9123 195.315 46.7895 196.122 46.579C196.929 46.3334 197.473 45.8597 197.754 45.158C198.034 44.4563 198.175 43.4037 198.175 42.0003V11.949H197.017C195.403 11.949 194 12.3174 192.807 13.0542C191.614 13.7559 190.596 14.9664 189.754 16.6856C188.912 18.3697 188.175 20.703 187.544 23.6853H186.333C186.403 23.1941 186.438 22.5976 186.438 21.8959C186.474 21.1942 186.491 20.4574 186.491 19.6855C186.491 18.8083 186.456 17.5452 186.386 15.8962C186.351 14.2471 186.263 12.5279 186.123 10.7385C187.737 10.7736 189.491 10.8087 191.386 10.8437C193.315 10.8788 195.245 10.8964 197.175 10.8964C199.105 10.8964 200.841 10.8964 202.385 10.8964C203.964 10.8964 205.701 10.8964 207.595 10.8964C209.525 10.8964 211.455 10.8788 213.385 10.8437C215.314 10.8087 217.051 10.7736 218.595 10.7385ZM231.6 6.84392V24.9484C232.477 23.1239 233.653 21.8608 235.126 21.1591C236.635 20.4223 238.319 20.0539 240.179 20.0539C241.687 20.0539 242.898 20.2468 243.81 20.6328C244.722 20.9836 245.442 21.4749 245.968 22.1064C246.564 22.773 246.985 23.6327 247.231 24.6852C247.512 25.7378 247.652 27.1588 247.652 28.9482V43.1055C247.652 44.5791 247.898 45.5791 248.389 46.1053C248.915 46.6316 249.792 46.8948 251.02 46.8948V48C250.354 47.9649 249.336 47.9298 247.968 47.8947C246.635 47.8246 245.336 47.7895 244.073 47.7895C242.705 47.7895 241.372 47.8246 240.073 47.8947C238.81 47.9298 237.863 47.9649 237.231 48V46.8948C238.284 46.8948 239.021 46.6316 239.442 46.1053C239.863 45.5791 240.073 44.5791 240.073 43.1055V26.7378C240.073 25.8606 239.986 25.1063 239.81 24.4747C239.635 23.8081 239.302 23.2993 238.81 22.9485C238.354 22.5625 237.688 22.3696 236.81 22.3696C235.863 22.3696 234.986 22.6327 234.179 23.159C233.407 23.6502 232.776 24.3519 232.284 25.2642C231.828 26.1764 231.6 27.229 231.6 28.4219V43.1055C231.6 44.5791 231.811 45.5791 232.232 46.1053C232.653 46.6316 233.39 46.8948 234.442 46.8948V48C233.811 47.9649 232.881 47.9298 231.653 47.8947C230.425 47.8246 229.179 47.7895 227.916 47.7895C226.548 47.7895 225.162 47.8246 223.758 47.8947C222.39 47.9298 221.355 47.9649 220.653 48V46.8948C221.881 46.8948 222.741 46.6316 223.232 46.1053C223.758 45.5791 224.022 44.5791 224.022 43.1055V13.1594C224.022 11.5806 223.776 10.4227 223.285 9.6859C222.829 8.91401 221.951 8.52806 220.653 8.52806V7.42285C221.776 7.52811 222.864 7.58074 223.916 7.58074C225.355 7.58074 226.723 7.52811 228.021 7.42285C229.32 7.2825 230.512 7.08953 231.6 6.84392ZM266.514 20.0539C269.602 20.0539 272.023 20.9661 273.777 22.7906C275.531 24.6151 276.409 27.5974 276.409 31.7376H259.094L258.988 30.7376H269.777C269.812 29.0184 269.707 27.4395 269.462 26.001C269.216 24.5274 268.83 23.352 268.304 22.4748C267.777 21.5977 267.076 21.1591 266.199 21.1591C264.97 21.1591 263.918 21.931 263.041 23.4748C262.199 25.0186 261.69 27.5799 261.515 31.1586L261.672 31.4744C261.637 31.8954 261.602 32.334 261.567 32.7901C261.567 33.2463 261.567 33.7199 261.567 34.2111C261.567 36.6321 261.9 38.5969 262.567 40.1056C263.269 41.6143 264.146 42.7195 265.199 43.4213C266.251 44.0879 267.321 44.4212 268.409 44.4212C269.146 44.4212 269.9 44.316 270.672 44.1054C271.479 43.8598 272.286 43.4388 273.093 42.8423C273.9 42.2108 274.654 41.3336 275.356 40.2109L276.303 40.5266C275.882 41.8599 275.216 43.1581 274.303 44.4212C273.391 45.6843 272.233 46.7194 270.83 47.5263C269.426 48.3333 267.742 48.7368 265.777 48.7368C263.392 48.7368 261.286 48.2281 259.462 47.2106C257.637 46.1931 256.199 44.6493 255.146 42.5792C254.129 40.5091 253.62 37.8776 253.62 34.6848C253.62 31.4218 254.164 28.7026 255.252 26.5273C256.374 24.3519 257.901 22.738 259.83 21.6854C261.795 20.5977 264.023 20.0539 266.514 20.0539ZM21.6625 63.0017C24.0483 63.0017 25.9956 63.335 27.5043 64.0016C29.013 64.6683 30.3638 65.4753 31.5568 66.4226C31.9778 66.7384 32.3287 66.8962 32.6093 66.8962C33.276 66.8962 33.7146 65.8437 33.9251 63.7385H35.1355C35.0654 65.1069 35.0127 66.7734 34.9777 68.7383C34.9426 70.668 34.925 73.2468 34.925 76.4748H33.7146C33.469 74.3696 33.083 72.5451 32.5567 71.0013C32.0655 69.4224 31.1357 68.0716 29.7674 66.9489C28.9253 66.1419 27.8727 65.5103 26.6096 65.0542C25.3816 64.5981 24.136 64.37 22.8729 64.37C20.9432 64.37 19.2941 64.8788 17.9258 65.8963C16.5574 66.8787 15.4347 68.2295 14.5575 69.9487C13.6804 71.668 13.0313 73.6152 12.6102 75.7906C12.1892 77.9308 11.9787 80.1588 11.9787 82.4745C11.9787 88.79 12.8383 93.4038 14.5575 96.316C16.3118 99.2281 18.8205 100.684 22.0835 100.684C22.9256 100.684 23.6624 100.579 24.2939 100.368C24.9255 100.158 25.4342 99.9123 25.8202 99.6316C26.3114 99.2808 26.6447 98.9124 26.8201 98.5264C26.9956 98.1054 27.0833 97.5616 27.0833 96.8949V91.7373C27.0833 90.1233 26.9429 88.9304 26.6622 88.1585C26.4166 87.3515 25.9079 86.8076 25.136 86.527C24.3641 86.2463 23.2413 86.0884 21.7677 86.0533V85.0007C22.5045 85.0358 23.3817 85.0709 24.3992 85.106C25.4518 85.106 26.5394 85.1235 27.6622 85.1586C28.7849 85.1586 29.82 85.1586 30.7673 85.1586C32.2409 85.1586 33.5918 85.1411 34.8198 85.106C36.0478 85.0709 37.0477 85.0358 37.8196 85.0007V86.0533C37.153 86.0884 36.6443 86.2112 36.2934 86.4217C35.9776 86.6322 35.7496 87.0532 35.6092 87.6848C35.504 88.3163 35.4513 89.2812 35.4513 90.5794V101H34.3987C34.3637 100.404 34.2233 99.7544 33.9777 99.0527C33.7672 98.351 33.3988 98.0001 32.8725 98.0001C32.6269 98.0001 32.2936 98.0703 31.8725 98.2106C31.4866 98.3159 30.8726 98.6141 30.0305 99.1053C28.7323 99.8422 27.364 100.474 25.9254 101C24.4869 101.491 22.9782 101.737 21.3993 101.737C17.3293 101.737 13.8909 100.982 11.084 99.4738C8.27708 97.965 6.15437 95.8072 4.71584 93.0004C3.31239 90.1584 2.61067 86.755 2.61067 82.7903C2.61067 78.7905 3.41765 75.3169 5.03161 72.3697C6.68066 69.4224 8.92618 67.1243 11.7682 65.4753C14.6452 63.8262 17.9433 63.0017 21.6625 63.0017ZM58.0564 63.6332L70.8453 96.5791C71.3365 97.8422 71.8804 98.7194 72.4768 99.2106C73.1084 99.6667 73.6698 99.9123 74.161 99.9474V101C73.1084 100.93 71.8628 100.895 70.4243 100.895C69.0208 100.86 67.5998 100.842 66.1613 100.842C64.5473 100.842 63.0211 100.86 61.5826 100.895C60.144 100.895 59.0037 100.93 58.1617 101V99.9474C59.9511 99.8772 61.0738 99.579 61.5299 99.0527C62.0211 98.4913 61.9159 97.316 61.2142 95.5266L52.2672 71.054L53.2145 69.6856L45.2149 90.5268C44.443 92.4565 43.9693 94.0354 43.7939 95.2634C43.6535 96.4914 43.7413 97.4388 44.057 98.1054C44.4079 98.772 44.9517 99.2457 45.6885 99.5264C46.4604 99.772 47.3727 99.9123 48.4253 99.9474V101C47.2674 100.93 46.1622 100.895 45.1096 100.895C44.057 100.86 42.9869 100.842 41.8992 100.842C41.1273 100.842 40.3905 100.86 39.6888 100.895C39.0222 100.895 38.4257 100.93 37.8994 101V99.9474C38.6362 99.8071 39.3906 99.3334 40.1625 98.5264C40.9344 97.7194 41.6887 96.3511 42.4255 94.4213L54.425 63.6332C54.9864 63.6683 55.5828 63.6859 56.2144 63.6859C56.881 63.6859 57.495 63.6683 58.0564 63.6332ZM61.7405 85.8428V86.8954H46.0569L46.5832 85.8428H61.7405ZM94.172 63.0017C96.4877 63.0017 98.3823 63.3525 99.856 64.0543C101.365 64.7209 102.698 65.5103 103.856 66.4226C104.558 66.9489 105.084 67.019 105.435 66.6331C105.821 66.2121 106.084 65.2472 106.224 63.7385H107.435C107.364 65.1069 107.312 66.7734 107.277 68.7383C107.242 70.668 107.224 73.2468 107.224 76.4748H106.014C105.838 74.8608 105.61 73.4924 105.329 72.3697C105.049 71.2118 104.663 70.1943 104.172 69.3172C103.68 68.44 102.979 67.6506 102.066 66.9489C101.189 66.0717 100.172 65.4226 99.0139 65.0016C97.856 64.5806 96.6456 64.37 95.3825 64.37C93.4878 64.37 91.8739 64.8788 90.5406 65.8963C89.2073 66.8787 88.1196 68.2295 87.2776 69.9487C86.4706 71.668 85.8741 73.6152 85.4882 75.7906C85.1022 77.9308 84.9092 80.1588 84.9092 82.4745C84.9092 84.8253 85.1022 87.0883 85.4882 89.2637C85.9092 91.4039 86.5408 93.3161 87.3828 95.0003C88.26 96.6844 89.3827 98.0177 90.7511 99.0001C92.1195 99.9825 93.7334 100.474 95.593 100.474C96.7508 100.474 97.9087 100.263 99.0665 99.8422C100.259 99.386 101.277 98.7369 102.119 97.8949C103.487 96.8423 104.417 95.5441 104.908 94.0003C105.4 92.4214 105.768 90.3338 106.014 87.7374H107.224C107.224 91.0706 107.242 93.7722 107.277 95.8423C107.312 97.8773 107.364 99.5966 107.435 101H106.224C106.084 99.4913 105.838 98.544 105.487 98.158C105.172 97.7721 104.628 97.8247 103.856 98.3159C102.558 99.2281 101.172 100.035 99.6981 100.737C98.2595 101.403 96.4 101.737 94.1194 101.737C90.4002 101.737 87.1372 100.982 84.3303 99.4738C81.5585 97.965 79.4007 95.7897 77.8569 92.9477C76.3131 90.1057 75.5412 86.6848 75.5412 82.685C75.5412 78.7554 76.3307 75.3169 77.9096 72.3697C79.5235 69.4224 81.7164 67.1243 84.4882 65.4753C87.2951 63.8262 90.523 63.0017 94.172 63.0017ZM134.49 101V99.9474C135.613 99.8772 136.455 99.7369 137.016 99.5264C137.578 99.3159 137.946 98.8948 138.122 98.2633C138.332 97.6317 138.437 96.6844 138.437 95.4213V69.3172C138.437 68.019 138.332 67.0717 138.122 66.4752C137.946 65.8437 137.56 65.4226 136.964 65.2121C136.402 64.9665 135.578 64.8262 134.49 64.7911V63.7385C135.437 63.7736 136.665 63.8087 138.174 63.8437C139.718 63.8788 141.244 63.8964 142.753 63.8964C144.367 63.8964 145.876 63.8788 147.279 63.8437C148.718 63.8087 149.875 63.7736 150.753 63.7385V64.7911C149.63 64.8262 148.77 64.9665 148.174 65.2121C147.612 65.4226 147.244 65.8437 147.068 66.4752C146.893 67.0717 146.805 68.019 146.805 69.3172V95.4213C146.805 96.6844 146.893 97.6317 147.068 98.2633C147.279 98.8948 147.665 99.3159 148.226 99.5264C148.788 99.7369 149.63 99.8772 150.753 99.9474V101C149.875 100.93 148.718 100.895 147.279 100.895C145.876 100.86 144.367 100.842 142.753 100.842C141.244 100.842 139.718 100.86 138.174 100.895C136.665 100.895 135.437 100.93 134.49 101ZM112.175 101V99.9474C113.298 99.8772 114.14 99.7369 114.702 99.5264C115.263 99.3159 115.631 98.8948 115.807 98.2633C116.017 97.6317 116.122 96.6844 116.122 95.4213V69.3172C116.122 68.019 116.017 67.0717 115.807 66.4752C115.631 65.8437 115.245 65.4226 114.649 65.2121C114.088 64.9665 113.263 64.8262 112.175 64.7911V63.7385C113.088 63.7736 114.263 63.8087 115.701 63.8437C117.175 63.8788 118.772 63.8964 120.491 63.8964C121.964 63.8964 123.42 63.8788 124.859 63.8437C126.297 63.8087 127.49 63.7736 128.438 63.7385V64.7911C127.315 64.8262 126.455 64.9665 125.859 65.2121C125.298 65.4226 124.929 65.8437 124.754 66.4752C124.578 67.0717 124.491 68.019 124.491 69.3172V95.4213C124.491 96.6844 124.578 97.6317 124.754 98.2633C124.964 98.8948 125.35 99.3159 125.912 99.5264C126.473 99.7369 127.315 99.8772 128.438 99.9474V101C127.49 100.93 126.297 100.895 124.859 100.895C123.42 100.86 121.964 100.842 120.491 100.842C118.772 100.842 117.175 100.86 115.701 100.895C114.263 100.895 113.088 100.93 112.175 101ZM121.07 82.7903V81.7377H141.858V82.7903H121.07ZM172.962 63.0017C176.681 63.0017 179.926 63.756 182.698 65.2647C185.505 66.7734 187.68 68.9488 189.224 71.7908C190.768 74.5977 191.54 78.0186 191.54 82.0535C191.54 85.9831 190.75 89.4216 189.171 92.3688C187.593 95.316 185.382 97.6142 182.54 99.2632C179.733 100.912 176.523 101.737 172.909 101.737C169.19 101.737 165.927 100.982 163.12 99.4738C160.348 97.965 158.19 95.7897 156.647 92.9477C155.103 90.1057 154.331 86.6848 154.331 82.685C154.331 78.7554 155.12 75.3169 156.699 72.3697C158.313 69.4224 160.506 67.1243 163.278 65.4753C166.085 63.8262 169.313 63.0017 172.962 63.0017ZM172.751 63.949C170.786 63.949 169.067 64.7384 167.594 66.3173C166.155 67.8962 165.032 70.0715 164.225 72.8434C163.453 75.6152 163.067 78.8255 163.067 82.4745C163.067 86.1936 163.506 89.4391 164.383 92.2109C165.295 94.9476 166.506 97.0703 168.015 98.5791C169.558 100.053 171.26 100.789 173.12 100.789C175.084 100.789 176.786 100 178.225 98.4212C179.698 96.8423 180.821 94.6669 181.593 91.8951C182.4 89.0882 182.803 85.8779 182.803 82.264C182.803 78.5098 182.347 75.2643 181.435 72.5276C180.558 69.7909 179.347 67.6857 177.804 66.2121C176.295 64.7034 174.611 63.949 172.751 63.949ZM229.862 63.7385V64.7911C228.739 64.9314 227.897 65.2297 227.336 65.6858C226.775 66.1068 226.389 66.791 226.178 67.7383C226.003 68.6856 225.915 70.0189 225.915 71.7381V101.105C225.494 101.07 225.055 101.053 224.599 101.053C224.178 101.053 223.722 101.07 223.231 101.105L200.39 72.1592V92.3688C200.39 94.2985 200.495 95.7897 200.706 96.8423C200.916 97.8598 201.372 98.5966 202.074 99.0527C202.811 99.4738 203.951 99.772 205.495 99.9474V101C204.828 100.93 203.951 100.895 202.863 100.895C201.776 100.86 200.758 100.842 199.811 100.842C199.004 100.842 198.179 100.86 197.337 100.895C196.495 100.895 195.793 100.93 195.232 101V99.9474C196.355 99.772 197.197 99.4738 197.758 99.0527C198.32 98.6317 198.688 97.9475 198.864 97.0002C199.074 96.0178 199.179 94.6845 199.179 93.0004V69.3172C199.179 68.019 199.074 67.0717 198.864 66.4752C198.688 65.8437 198.302 65.4226 197.706 65.2121C197.144 64.9665 196.32 64.8262 195.232 64.7911V63.7385C195.793 63.7736 196.495 63.8087 197.337 63.8437C198.179 63.8788 199.004 63.8964 199.811 63.8964C200.653 63.8964 201.46 63.8788 202.232 63.8437C203.004 63.8087 203.705 63.7736 204.337 63.7385L224.704 88.8426V72.3697C224.704 70.4399 224.599 68.9663 224.389 67.9488C224.178 66.8962 223.705 66.1419 222.968 65.6858C222.266 65.2297 221.143 64.9314 219.599 64.7911V63.7385C220.266 63.7736 221.143 63.8087 222.231 63.8437C223.319 63.8788 224.336 63.8964 225.283 63.8964C226.125 63.8964 226.95 63.8788 227.757 63.8437C228.599 63.8087 229.301 63.7736 229.862 63.7385ZM267.759 101V99.9474C268.882 99.8772 269.724 99.7369 270.286 99.5264C270.847 99.3159 271.215 98.8948 271.391 98.2633C271.601 97.6317 271.706 96.6844 271.706 95.4213V69.3172C271.706 68.019 271.601 67.0717 271.391 66.4752C271.215 65.8437 270.829 65.4226 270.233 65.2121C269.671 64.9665 268.847 64.8262 267.759 64.7911V63.7385C268.707 63.7736 269.935 63.8087 271.443 63.8437C272.987 63.8788 274.513 63.8964 276.022 63.8964C277.636 63.8964 279.145 63.8788 280.548 63.8437C281.987 63.8087 283.145 63.7736 284.022 63.7385V64.7911C282.899 64.8262 282.039 64.9665 281.443 65.2121C280.882 65.4226 280.513 65.8437 280.338 66.4752C280.162 67.0717 280.075 68.019 280.075 69.3172V95.4213C280.075 96.6844 280.162 97.6317 280.338 98.2633C280.548 98.8948 280.934 99.3159 281.496 99.5264C282.057 99.7369 282.899 99.8772 284.022 99.9474V101C283.145 100.93 281.987 100.895 280.548 100.895C279.145 100.86 277.636 100.842 276.022 100.842C274.513 100.842 272.987 100.86 271.443 100.895C269.935 100.895 268.707 100.93 267.759 101ZM245.445 101V99.9474C246.567 99.8772 247.409 99.7369 247.971 99.5264C248.532 99.3159 248.9 98.8948 249.076 98.2633C249.286 97.6317 249.392 96.6844 249.392 95.4213V69.3172C249.392 68.019 249.286 67.0717 249.076 66.4752C248.9 65.8437 248.515 65.4226 247.918 65.2121C247.357 64.9665 246.532 64.8262 245.445 64.7911V63.7385C246.357 63.7736 247.532 63.8087 248.971 63.8437C250.444 63.8788 252.041 63.8964 253.76 63.8964C255.234 63.8964 256.69 63.8788 258.128 63.8437C259.567 63.8087 260.76 63.7736 261.707 63.7385V64.7911C260.584 64.8262 259.725 64.9665 259.128 65.2121C258.567 65.4226 258.198 65.8437 258.023 66.4752C257.847 67.0717 257.76 68.019 257.76 69.3172V95.4213C257.76 96.6844 257.847 97.6317 258.023 98.2633C258.233 98.8948 258.619 99.3159 259.181 99.5264C259.742 99.7369 260.584 99.8772 261.707 99.9474V101C260.76 100.93 259.567 100.895 258.128 100.895C256.69 100.86 255.234 100.842 253.76 100.842C252.041 100.842 250.444 100.86 248.971 100.895C247.532 100.895 246.357 100.93 245.445 101ZM254.339 82.7903V81.7377H275.127V82.7903H254.339ZM315.694 63.7385C315.554 65.2823 315.449 66.7734 315.378 68.212C315.343 69.6505 315.326 70.7557 315.326 71.5276C315.326 72.2293 315.343 72.896 315.378 73.5275C315.414 74.1591 315.449 74.6854 315.484 75.1064H314.273C313.922 72.5451 313.379 70.5277 312.642 69.054C311.905 67.5453 310.94 66.4928 309.747 65.8963C308.589 65.2647 307.221 64.949 305.642 64.949H303.484C302.467 64.949 301.695 65.0367 301.169 65.2121C300.642 65.3875 300.291 65.7384 300.116 66.2647C299.941 66.791 299.853 67.598 299.853 68.6856V96.0529C299.853 97.1405 299.941 97.9475 300.116 98.4738C300.291 99.0001 300.642 99.351 301.169 99.5264C301.695 99.7018 302.467 99.7895 303.484 99.7895H306.063C307.642 99.7895 309.028 99.4562 310.221 98.7896C311.449 98.0878 312.484 96.9125 313.326 95.2634C314.203 93.6144 314.87 91.3864 315.326 88.5795H316.536C316.431 89.7023 316.378 91.1759 316.378 93.0004C316.378 93.8073 316.396 94.9476 316.431 96.4213C316.466 97.8949 316.571 99.4211 316.747 101C314.957 100.93 312.94 100.895 310.694 100.895C308.449 100.86 306.449 100.842 304.695 100.842C303.818 100.842 302.695 100.842 301.326 100.842C299.958 100.842 298.485 100.86 296.906 100.895C295.327 100.895 293.73 100.912 292.116 100.947C290.502 100.947 288.976 100.965 287.538 101V99.9474C288.66 99.8772 289.502 99.7369 290.064 99.5264C290.625 99.3159 290.994 98.8948 291.169 98.2633C291.38 97.6317 291.485 96.6844 291.485 95.4213V69.3172C291.485 68.019 291.38 67.0717 291.169 66.4752C290.994 65.8437 290.608 65.4226 290.011 65.2121C289.45 64.9665 288.625 64.8262 287.538 64.7911V63.7385C288.976 63.7736 290.502 63.8087 292.116 63.8437C293.73 63.8437 295.327 63.8613 296.906 63.8964C298.485 63.8964 299.958 63.8964 301.326 63.8964C302.695 63.8964 303.818 63.8964 304.695 63.8964C306.309 63.8964 308.133 63.8964 310.168 63.8964C312.238 63.8613 314.08 63.8087 315.694 63.7385ZM307.484 81.7377C307.484 81.7377 307.484 81.9131 307.484 82.264C307.484 82.6148 307.484 82.7903 307.484 82.7903H298.274C298.274 82.7903 298.274 82.6148 298.274 82.264C298.274 81.9131 298.274 81.7377 298.274 81.7377H307.484ZM309.01 74.7906C308.87 76.7905 308.8 78.3168 308.8 79.3694C308.835 80.422 308.852 81.3868 308.852 82.264C308.852 83.1411 308.87 84.106 308.905 85.1586C308.94 86.2112 309.028 87.7374 309.168 89.7373H307.958C307.782 88.5093 307.449 87.369 306.958 86.3164C306.502 85.2639 305.835 84.4218 304.958 83.7902C304.081 83.1236 302.94 82.7903 301.537 82.7903V81.7377C302.59 81.7377 303.484 81.5272 304.221 81.1061C304.958 80.65 305.554 80.0711 306.01 79.3694C306.502 78.6326 306.888 77.8607 307.168 77.0537C307.449 76.2467 307.66 75.4924 307.8 74.7906H309.01ZM320.893 63.7385C321.771 63.7736 322.946 63.8087 324.42 63.8437C325.928 63.8788 327.419 63.8964 328.893 63.8964C330.577 63.8964 332.209 63.8788 333.788 63.8437C335.367 63.8087 336.489 63.7911 337.156 63.7911C340.419 63.7911 343.121 64.1595 345.261 64.8963C347.436 65.5981 349.05 66.6331 350.103 68.0015C351.19 69.3698 351.734 71.0189 351.734 72.9486C351.734 74.1415 351.489 75.352 350.997 76.58C350.506 77.773 349.664 78.8957 348.471 79.9483C347.313 80.9658 345.717 81.7903 343.682 82.4219C341.647 83.0183 339.086 83.3166 335.998 83.3166H330.946V82.264H335.472C337.542 82.264 339.103 81.878 340.156 81.1061C341.243 80.2992 341.98 79.2466 342.366 77.9484C342.787 76.6151 342.998 75.1415 342.998 73.5275C342.998 70.7557 342.507 68.6155 341.524 67.1068C340.542 65.563 338.858 64.7911 336.472 64.7911C335.103 64.7911 334.209 65.0893 333.788 65.6858C333.402 66.2822 333.209 67.4927 333.209 69.3172V95.4213C333.209 96.6844 333.296 97.6317 333.472 98.2633C333.682 98.8948 334.068 99.3159 334.63 99.5264C335.191 99.7369 336.033 99.8772 337.156 99.9474V101C336.209 100.93 335.016 100.895 333.577 100.895C332.139 100.86 330.683 100.842 329.209 100.842C327.525 100.842 325.928 100.86 324.42 100.895C322.946 100.895 321.771 100.93 320.893 101V99.9474C322.016 99.8772 322.858 99.7369 323.42 99.5264C323.981 99.3159 324.349 98.8948 324.525 98.2633C324.735 97.6317 324.841 96.6844 324.841 95.4213V69.3172C324.841 68.019 324.735 67.0717 324.525 66.4752C324.349 65.8437 323.963 65.4226 323.367 65.2121C322.806 64.9665 321.981 64.8262 320.893 64.7911V63.7385ZM330.84 82.4219C332.349 82.457 333.647 82.5271 334.735 82.6324C335.858 82.7376 336.84 82.8429 337.682 82.9482C338.524 83.0183 339.279 83.071 339.945 83.1061C343.138 83.3867 345.489 84.0709 346.998 85.1586C348.541 86.2463 349.541 87.8778 349.997 90.0531L351.208 95.4739C351.524 96.8774 351.857 97.8598 352.208 98.4212C352.559 98.9825 353.067 99.2632 353.734 99.2632C354.19 99.2281 354.559 99.1229 354.839 98.9475C355.155 98.7369 355.488 98.4387 355.839 98.0528L356.576 98.6843C355.629 99.772 354.611 100.544 353.524 101C352.436 101.491 351.12 101.737 349.576 101.737C347.682 101.737 346.12 101.333 344.892 100.526C343.664 99.7194 342.857 98.2282 342.471 96.0529L341.524 90.7899C341.279 89.3163 340.98 88.0357 340.629 86.948C340.279 85.8252 339.787 84.9481 339.156 84.3165C338.559 83.6499 337.717 83.3166 336.63 83.3166H330.946L330.84 82.4219ZM374.911 63.6332L387.7 96.5791C388.191 97.8422 388.735 98.7194 389.332 99.2106C389.963 99.6667 390.525 99.9123 391.016 99.9474V101C389.963 100.93 388.718 100.895 387.279 100.895C385.876 100.86 384.455 100.842 383.016 100.842C381.402 100.842 379.876 100.86 378.437 100.895C376.999 100.895 375.859 100.93 375.016 101V99.9474C376.806 99.8772 377.929 99.579 378.385 99.0527C378.876 98.4913 378.771 97.316 378.069 95.5266L369.122 71.054L370.069 69.6856L362.07 90.5268C361.298 92.4565 360.824 94.0354 360.649 95.2634C360.508 96.4914 360.596 97.4388 360.912 98.1054C361.263 98.772 361.807 99.2457 362.543 99.5264C363.315 99.772 364.227 99.9123 365.28 99.9474V101C364.122 100.93 363.017 100.895 361.964 100.895C360.912 100.86 359.842 100.842 358.754 100.842C357.982 100.842 357.245 100.86 356.544 100.895C355.877 100.895 355.28 100.93 354.754 101V99.9474C355.491 99.8071 356.245 99.3334 357.017 98.5264C357.789 97.7194 358.544 96.3511 359.28 94.4213L371.28 63.6332C371.841 63.6683 372.438 63.6859 373.069 63.6859C373.736 63.6859 374.35 63.6683 374.911 63.6332ZM378.595 85.8428V86.8954H362.912L363.438 85.8428H378.595ZM407.987 63.7385V64.7911C406.794 64.8262 405.881 64.9665 405.25 65.2121C404.653 65.4226 404.25 65.8437 404.039 66.4752C403.829 67.0717 403.724 68.019 403.724 69.3172V96.0529C403.724 97.1405 403.794 97.9475 403.934 98.4738C404.11 99.0001 404.425 99.351 404.882 99.5264C405.373 99.7018 406.092 99.7895 407.039 99.7895H409.618C410.811 99.7895 411.934 99.5088 412.986 98.9475C414.039 98.3861 414.986 97.5966 415.828 96.5791C416.67 95.5266 417.372 94.281 417.934 92.8425C418.495 91.4039 418.916 89.8075 419.197 88.0532H420.407C420.302 89.2461 420.249 90.7899 420.249 92.6846C420.249 93.4916 420.267 94.6669 420.302 96.2107C420.337 97.7545 420.442 99.351 420.618 101C418.828 100.93 416.811 100.895 414.565 100.895C412.32 100.86 410.32 100.842 408.566 100.842C407.688 100.842 406.566 100.842 405.197 100.842C403.829 100.842 402.355 100.86 400.776 100.895C399.198 100.895 397.601 100.912 395.987 100.947C394.373 100.947 392.847 100.965 391.408 101V99.9474C392.531 99.8772 393.373 99.7369 393.935 99.5264C394.496 99.3159 394.864 98.8948 395.04 98.2633C395.25 97.6317 395.356 96.6844 395.356 95.4213V69.3172C395.356 68.019 395.25 67.0717 395.04 66.4752C394.864 65.8437 394.478 65.4226 393.882 65.2121C393.321 64.9665 392.496 64.8262 391.408 64.7911V63.7385C392.286 63.7736 393.461 63.8087 394.935 63.8437C396.443 63.8788 398.04 63.8964 399.724 63.8964C401.268 63.8964 402.776 63.8788 404.25 63.8437C405.759 63.8087 407.004 63.7736 407.987 63.7385ZM439.845 63.7385C446.757 63.7385 451.897 65.3174 455.265 68.4751C458.633 71.5978 460.317 76.0888 460.317 81.9482C460.317 85.7726 459.493 89.1233 457.844 92.0004C456.195 94.8424 453.791 97.0528 450.634 98.6317C447.511 100.211 443.757 101 439.371 101C438.81 101 438.073 100.982 437.161 100.947C436.248 100.912 435.301 100.895 434.319 100.895C433.336 100.86 432.459 100.842 431.687 100.842C430.143 100.842 428.617 100.86 427.108 100.895C425.635 100.895 424.459 100.93 423.582 101V99.9474C424.705 99.8772 425.547 99.7369 426.108 99.5264C426.67 99.3159 427.038 98.8948 427.214 98.2633C427.424 97.6317 427.529 96.6844 427.529 95.4213V69.3172C427.529 68.019 427.424 67.0717 427.214 66.4752C427.038 65.8437 426.652 65.4226 426.056 65.2121C425.494 64.9665 424.67 64.8262 423.582 64.7911V63.7385C424.459 63.7736 425.635 63.8262 427.108 63.8964C428.617 63.9315 430.108 63.9315 431.582 63.8964C432.845 63.8613 434.266 63.8262 435.845 63.7911C437.459 63.756 438.792 63.7385 439.845 63.7385ZM439.792 64.6858C438.178 64.6858 437.125 64.984 436.634 65.5805C436.143 66.177 435.897 67.3875 435.897 69.2119V95.5266C435.897 97.351 436.143 98.5615 436.634 99.158C437.161 99.7544 438.231 100.053 439.845 100.053C442.792 100.053 445.108 99.3685 446.792 98.0001C448.511 96.5967 449.739 94.5617 450.476 91.8951C451.213 89.2286 451.581 85.9831 451.581 82.1587C451.581 78.2291 451.177 74.9836 450.37 72.4223C449.599 69.8259 448.353 67.8962 446.634 66.6331C444.915 65.3349 442.634 64.6858 439.792 64.6858Z" fill="#0D1C51"/>
<line x1="275.231" y1="40.9505" x2="454.17" y2="40.9505" stroke="#0D1C51" stroke-width="1.3709"/>
</svg>
